HIERARCHY
ROOT root
{
	OFFSET 0.000000 0.000000 0.000000
	CHANNELS 6 Xposition Yposition Zposition Zrotation Yrotation Xrotation
	JOINT lhip
	{
		OFFSET 0.058581 -0.082280 -0.017664
		CHANNELS 3 Zrotation Yrotation Xrotation
		JOINT lknee
		{
			OFFSET 0.043451 -0.386469 0.008037
			CHANNELS 3 Zrotation Yrotation Xrotation
			JOINT lankle
			{
				OFFSET -0.014790 -0.426874 -0.037428
				CHANNELS 3 Zrotation Yrotation Xrotation
				JOINT ltoe
				{
					OFFSET 0.041054 -0.060286 0.122042
					CHANNELS 3 Zrotation Yrotation Xrotation
					End Site
					{
						OFFSET 0.000000 0.000000 0.000000
					}
				}
			}
		}
	}
	JOINT rhip
	{
		OFFSET -0.060310 -0.090513 -0.013543
		CHANNELS 3 Zrotation Yrotation Xrotation
		JOINT rknee
		{
			OFFSET -0.043257 -0.383688 -0.004843
			CHANNELS 3 Zrotation Yrotation Xrotation
			JOINT rankle
			{
				OFFSET 0.019056 -0.420046 -0.034562
				CHANNELS 3 Zrotation Yrotation Xrotation
				JOINT rtoe
				{
					OFFSET -0.034840 -0.062106 0.130323
					CHANNELS 3 Zrotation Yrotation Xrotation
					End Site
					{
						OFFSET 0.000000 0.000000 0.000000
					}
				}
			}
		}
	}
	JOINT lowerback
	{
		OFFSET 0.004439 0.124404 -0.038385
		CHANNELS 3 Zrotation Yrotation Xrotation
		JOINT upperback
		{
			OFFSET 0.004488 0.137956 0.026820
			CHANNELS 3 Zrotation Yrotation Xrotation
			JOINT chest
			{
				OFFSET -0.002265 0.056032 0.002855
				CHANNELS 3 Zrotation Yrotation Xrotation
				JOINT lowerneck
				{
					OFFSET -0.013390 0.211636 -0.033468
					CHANNELS 3 Zrotation Yrotation Xrotation
					JOINT upperneck
					{
						OFFSET 0.010113 0.088937 0.050410
						CHANNELS 3 Zrotation Yrotation Xrotation
						End Site
						{
							OFFSET 0.000000 0.000000 0.000000
						}
					}
				}
				JOINT lclavicle
				{
					OFFSET 0.071702 0.114000 -0.018898
					CHANNELS 3 Zrotation Yrotation Xrotation
					JOINT lshoulder
					{
						OFFSET 0.122921 0.045205 -0.019046
						CHANNELS 3 Zrotation Yrotation Xrotation
						JOINT lelbow
						{
							OFFSET 0.255332 -0.015649 -0.022946
							CHANNELS 3 Zrotation Yrotation Xrotation
							JOINT lwrist
							{
								OFFSET 0.265709 0.012698 -0.007375
								CHANNELS 3 Zrotation Yrotation Xrotation
								End Site
								{
									OFFSET 0.000000 0.000000 0.000000
								}
							}
						}
					}
				}
				JOINT rclavicle
				{
					OFFSET -0.082954 0.112472 -0.023707
					CHANNELS 3 Zrotation Yrotation Xrotation
					JOINT rshoulder
					{
						OFFSET -0.113228 0.046853 -0.008472
						CHANNELS 3 Zrotation Yrotation Xrotation
						JOINT relbow
						{
							OFFSET -0.260127 -0.014369 -0.031269
							CHANNELS 3 Zrotation Yrotation Xrotation
							JOINT rwrist
							{
								OFFSET -0.269108 0.006794 -0.006027
								CHANNELS 3 Zrotation Yrotation Xrotation
								End Site
								{
									OFFSET 0.000000 0.000000 0.000000
								}
							}
						}
					}
				}
			}
		}
	}
}
MOTION
Frames: 7
Frame Time: 0.033333
-1.316080 0.276350 0.983382 93.541635 1.223353 83.103663 4.051427 4.376941 14.248353 -8.006026 -15.184969 35.809943 -5.306645 3.006353 6.837127 0.000000 -0.000000 0.000000 2.208670 -0.248687 -16.404721 1.163172 -4.696075 16.242609 2.323869 -5.869008 -0.389512 0.000000 -0.000000 0.000000 1.137100 -5.296485 13.519010 2.599520 -0.210961 -2.772398 0.702589 -3.357863 1.319100 0.852894 5.956243 -7.212064 -3.285677 0.901783 12.141637 -29.567076 4.319078 -2.324025 -48.435482 -12.415956 8.479765 6.766453 -31.135773 5.813304 -0.922431 -3.767989 -0.157808 33.837695 -3.545125 -1.831774 50.735757 2.299991 13.067478 -11.070331 17.240811 -9.677573 4.715677 0.089638 -3.275017 
-1.273504 0.269806 0.987800 92.552674 1.515631 82.910123 4.302775 3.929836 9.908012 -9.260249 -12.752502 43.669053 -5.194686 3.376419 16.043850 0.000000 -0.000000 0.000000 3.484479 -0.231857 -13.311592 1.401822 -3.904109 16.205301 -0.325256 -5.774436 -2.009769 0.000000 -0.000000 0.000000 1.338819 -4.268557 13.071365 2.790542 0.054418 -2.295240 0.525846 -2.919178 0.953790 0.660357 5.082235 -6.661390 -2.860733 1.031746 12.285015 -29.976217 4.215278 -1.795293 -48.558668 -11.366798 8.702613 6.469394 -30.804317 6.392694 -1.841527 -2.868923 -0.963733 33.703205 -2.994016 -1.121871 50.440709 2.301044 13.103742 -10.886093 17.150102 -9.175437 5.474488 0.339501 -4.114576 
-1.234102 0.264462 0.992732 91.583933 1.325416 82.937739 3.761314 3.652241 4.617797 -8.704453 -9.196562 50.742150 -3.886421 5.466435 13.916972 0.000000 -0.000000 0.000000 4.235468 -0.297095 -10.596434 1.354477 -2.704357 16.099350 -1.571946 -6.164827 -4.137470 0.000000 -0.000000 0.000000 1.081828 -3.071158 12.759658 2.673736 0.100151 -2.773507 0.399072 -2.478931 1.239087 1.003720 4.542674 -6.312323 -2.860104 1.097518 12.924565 -30.309127 4.421442 -1.882031 -48.795405 -10.531527 8.647652 5.841490 -29.976717 7.159715 -2.341430 -1.415884 -0.335498 33.743962 -2.630035 -1.164260 50.060665 2.859480 13.419990 -10.381725 16.888758 -8.360916 5.540344 0.126482 -3.841807 
-1.184716 0.258630 0.999948 90.249201 0.917900 82.323688 3.090588 2.507915 -0.153985 -6.901123 -4.657150 54.445828 0.401532 7.308795 6.021523 0.000000 -0.000000 0.000000 4.766860 -0.688395 -5.263983 1.354433 -0.346285 13.753513 -1.311334 -6.727453 -5.631165 0.000000 -0.000000 0.000000 0.958417 -1.296952 12.905692 2.277544 -0.124602 -3.080236 0.149134 -2.054500 1.798118 1.171746 3.801936 -6.398847 -2.918364 1.127460 13.125843 -30.440120 4.695229 -1.873265 -49.486739 -9.283655 8.256161 5.686878 -28.199595 8.734621 -3.951457 -1.506226 -0.664138 33.157791 -2.024526 -1.507304 50.353184 4.097754 13.767689 -9.800773 16.907849 -7.014890 6.357544 -0.734583 -3.951689 
-1.156910 0.256101 1.003934 89.740190 0.501185 82.251194 2.480570 1.489117 -3.137061 -6.873352 -3.810470 55.009898 0.916195 7.875299 2.202874 0.000000 -0.000000 0.000000 4.752706 -1.435927 -2.550822 1.031171 0.730096 12.277287 -1.309521 -5.952398 -5.932138 0.000000 -0.000000 0.000000 0.858112 -0.196573 13.055695 1.932161 -0.437798 -3.687245 0.029657 -1.837770 1.958167 1.046746 3.607176 -5.797551 -2.728089 1.136416 13.142032 -30.379579 4.677930 -1.560357 -50.028434 -8.219572 8.276824 5.717875 -27.563293 8.843936 -3.622792 -1.599770 -0.980762 32.737765 -1.527605 -1.376183 50.612260 4.748174 13.663134 -10.060992 17.237307 -7.081157 5.368522 -0.081084 -4.632868 
-1.120553 0.253312 1.007329 88.958172 -0.025178 82.360317 2.197013 1.270122 -7.606040 -6.046032 -1.327411 53.952398 1.817598 8.427411 -1.154351 0.000000 -0.000000 0.000000 4.437626 -2.302976 1.039295 0.741612 2.011800 9.948827 -0.568824 -5.859604 -7.318058 0.000000 -0.000000 0.000000 0.790092 1.150163 13.317793 1.462128 -0.606973 -4.245041 -0.206719 -1.487238 2.127144 0.997061 3.278005 -6.375898 -2.812598 0.829732 13.253085 -30.299593 5.051528 -1.803404 -50.602460 -7.149213 8.395268 5.075130 -26.870240 9.934608 -3.477328 -1.498154 -0.930880 32.197280 -1.473714 -1.846737 50.764611 5.739014 13.689375 -9.594400 18.396027 -6.630334 5.708969 -0.220937 -5.119352 
-1.086045 0.251554 1.009193 87.893577 -0.620695 82.148249 1.893230 0.289468 -10.782853 -5.945108 0.229936 49.949737 2.102843 8.302659 -4.504039 0.000000 -0.000000 0.000000 3.524501 -3.344974 4.706880 0.964330 3.672259 7.786392 -0.301745 -5.691846 -8.495028 0.000000 -0.000000 0.000000 0.883063 2.652998 14.211815 0.891388 -0.653918 -4.736670 -0.432358 -1.087200 2.085743 1.032568 3.044179 -6.966645 -2.960255 0.264897 13.082216 -30.623954 5.019551 -1.942983 -50.739160 -5.968490 8.516082 4.604321 -26.222224 10.681852 -3.012871 -1.659279 -1.126034 31.818787 -0.894049 -1.831946 50.520706 6.552889 13.891274 -9.751066 20.671068 -6.439722 4.253779 0.035672 -5.252602 
